<?xml version="1.0" encoding="UTF-8" standalone="no"?>
<svg
   id="Layer_6"
   data-name="Layer 6"
   viewBox="0 0 404.32 404.32"
   version="1.1"
   sodipodi:docname="filter.svg"
   xml:space="preserve"
   inkscape:version="1.2.2 (732a01da63, 2022-12-09)"
   xmlns:inkscape="http://www.inkscape.org/namespaces/inkscape"
   xmlns:sodipodi="http://sodipodi.sourceforge.net/DTD/sodipodi-0.dtd"
   xmlns="http://www.w3.org/2000/svg"
   xmlns:svg="http://www.w3.org/2000/svg"
   xmlns:rdf="http://www.w3.org/1999/02/22-rdf-syntax-ns#"
   xmlns:cc="http://creativecommons.org/ns#"
   xmlns:dc="http://purl.org/dc/elements/1.1/"><sodipodi:namedview
     id="namedview21"
     pagecolor="#ffffff"
     bordercolor="#666666"
     borderopacity="1.0"
     inkscape:showpageshadow="2"
     inkscape:pageopacity="0.0"
     inkscape:pagecheckerboard="0"
     inkscape:deskcolor="#d1d1d1"
     showgrid="false"
     inkscape:zoom="0.58369607"
     inkscape:cx="180.74475"
     inkscape:cy="203.01661"
     inkscape:window-width="1920"
     inkscape:window-height="991"
     inkscape:window-x="-9"
     inkscape:window-y="-9"
     inkscape:window-maximized="1"
     inkscape:current-layer="Layer_6" /><defs
     id="defs4"><style
       id="style2">.cls-1{fill:none;stroke-width:15px;}.cls-1,.cls-2{stroke:#fff;stroke-miterlimit:10;}.cls-2{fill:#fff;stroke-width:4px;}</style></defs><title
     id="title6">Arrows</title><g
     id="g2725"
     transform="translate(594.48746,200.44678)"><circle
       id="Circle2"
       class="cls-1"
       cx="-392.32745"
       cy="1.7132237"
       r="194.66" /><g
       style="fill:none;stroke:#ffffff;stroke-opacity:1"
       id="g1980"
       transform="matrix(16.950632,0,0,16.950632,-604.20337,-193.21878)"><g
         id="SVGRepo_bgCarrier"
         stroke-width="0"
         style="stroke:#ffffff;stroke-opacity:1" /><g
         id="SVGRepo_tracerCarrier"
         stroke-linecap="round"
         stroke-linejoin="round"
         style="stroke:#ffffff;stroke-opacity:1" /><g
         id="SVGRepo_iconCarrier"
         style="stroke:#ffffff;stroke-opacity:1"><path
           d="M 17,7 V 5.5 m 0,2.75 V 8.5 M 12.5,5 H 6 C 5.5286,5 5.29289,5 5.14645,5.14645 5,5.29289 5,5.5286 5,6 V 7.96482 C 5,8.2268 5,8.35779 5.05916,8.46834 5.11833,8.57888 5.22732,8.65154 5.4453,8.79687 l 3.0235,2.01563 c 0.87193,0.5813 1.3079,0.872 1.5445,1.3142 0.2367,0.4421 0.2367,0.9661 0.2367,2.014 V 19 l 3.5,-1.75 v -3.1093 c 0,-1.0479 0,-1.5719 0.2367,-2.014 0.1338,-0.2502 0.3315,-0.4519 0.6359,-0.6852 M 20,7 c 0,1.65685 -1.3431,3 -3,3 -1.6569,0 -3,-1.34315 -3,-3 0,-1.65685 1.3431,-3 3,-3 1.6569,0 3,1.34315 3,3 z"
           stroke="#464455"
           stroke-linecap="round"
           stroke-linejoin="round"
           id="path1967"
           style="stroke:#ffffff;stroke-opacity:1" /></g></g></g><metadata
     id="metadata2727"><rdf:RDF><cc:Work
         rdf:about=""><dc:title>Arrows</dc:title></cc:Work></rdf:RDF></metadata></svg>
