<?xml version="1.0" encoding="UTF-8" standalone="no"?>
<svg
   id="Layer_6"
   data-name="Layer 6"
   viewBox="0 0 404.32 404.32"
   version="1.1"
   sodipodi:docname="toggle_images.svg"
   xml:space="preserve"
   inkscape:version="1.2.2 (732a01da63, 2022-12-09)"
   xmlns:inkscape="http://www.inkscape.org/namespaces/inkscape"
   xmlns:sodipodi="http://sodipodi.sourceforge.net/DTD/sodipodi-0.dtd"
   xmlns="http://www.w3.org/2000/svg"
   xmlns:svg="http://www.w3.org/2000/svg"
   xmlns:rdf="http://www.w3.org/1999/02/22-rdf-syntax-ns#"
   xmlns:cc="http://creativecommons.org/ns#"
   xmlns:dc="http://purl.org/dc/elements/1.1/"><sodipodi:namedview
     id="namedview21"
     pagecolor="#ffffff"
     bordercolor="#666666"
     borderopacity="1.0"
     inkscape:showpageshadow="2"
     inkscape:pageopacity="0.0"
     inkscape:pagecheckerboard="0"
     inkscape:deskcolor="#d1d1d1"
     showgrid="false"
     inkscape:zoom="0.58369607"
     inkscape:cx="180.74475"
     inkscape:cy="203.01661"
     inkscape:window-width="1920"
     inkscape:window-height="991"
     inkscape:window-x="-9"
     inkscape:window-y="-9"
     inkscape:window-maximized="1"
     inkscape:current-layer="Layer_6" /><defs
     id="defs4"><style
       id="style2">.cls-1{fill:none;stroke-width:15px;}.cls-1,.cls-2{stroke:#fff;stroke-miterlimit:10;}.cls-2{fill:#fff;stroke-width:4px;}</style></defs><title
     id="title6">Arrows</title><g
     id="g1826"><circle
       id="Circle2"
       class="cls-1"
       cx="202.16"
       cy="202.16"
       r="194.66" /><g
       style="fill:#ffffff;stroke:none;stroke-width:0.97;stroke-dasharray:none;stroke-opacity:1"
       id="g1250"
       transform="matrix(12.666073,0,0,12.666073,100.83142,100.83142)"><path
         d="m 15,12 a 1,1 0 0 1 -1,1 H 2 A 1,1 0 0 1 1,12 V 6 A 1,1 0 0 1 2,5 H 3.172 A 3,3 0 0 0 5.292,4.121 L 6.122,3.293 A 1,1 0 0 1 6.827,3 h 2.344 a 1,1 0 0 1 0.707,0.293 l 0.828,0.828 A 3,3 0 0 0 12.828,5 H 14 a 1,1 0 0 1 1,1 z M 2,4 A 2,2 0 0 0 0,6 v 6 a 2,2 0 0 0 2,2 h 12 a 2,2 0 0 0 2,-2 V 6 A 2,2 0 0 0 14,4 H 12.828 A 2,2 0 0 1 11.414,3.414 L 10.586,2.586 A 2,2 0 0 0 9.172,2 H 6.828 A 2,2 0 0 0 5.414,2.586 L 4.586,3.414 A 2,2 0 0 1 3.172,4 Z"
         id="path1238"
         style="fill:#ffffff;stroke:none;stroke-width:0.97;stroke-dasharray:none;stroke-opacity:1" /><path
         d="m 8,11 a 2.5,2.5 0 1 1 0,-5 2.5,2.5 0 0 1 0,5 z m 0,1 A 3.5,3.5 0 1 0 8,5 3.5,3.5 0 0 0 8,12 Z M 3,6.5 a 0.5,0.5 0 1 1 -1,0 0.5,0.5 0 0 1 1,0 z"
         id="path1240"
         style="fill:#ffffff;stroke:none;stroke-width:0.97;stroke-dasharray:none;stroke-opacity:1" /></g></g><metadata
     id="metadata1828"><rdf:RDF><cc:Work
         rdf:about=""><dc:title>Arrows</dc:title></cc:Work></rdf:RDF></metadata></svg>
