<?xml version="1.0" encoding="UTF-8" standalone="no"?>
<svg
   id="Layer_6"
   data-name="Layer 6"
   version="1.1"
   viewBox="0 0 404.32 404.32"
   sodipodi:docname="back-to-the-future.svg"
   inkscape:version="1.2.2 (732a01da63, 2022-12-09)"
   xml:space="preserve"
   xmlns:inkscape="http://www.inkscape.org/namespaces/inkscape"
   xmlns:sodipodi="http://sodipodi.sourceforge.net/DTD/sodipodi-0.dtd"
   xmlns="http://www.w3.org/2000/svg"
   xmlns:svg="http://www.w3.org/2000/svg"><sodipodi:namedview
     id="namedview11"
     pagecolor="#ffffff"
     bordercolor="#666666"
     borderopacity="1.0"
     inkscape:showpageshadow="2"
     inkscape:pageopacity="0.0"
     inkscape:pagecheckerboard="0"
     inkscape:deskcolor="#d1d1d1"
     showgrid="false"
     inkscape:zoom="0.58369607"
     inkscape:cx="206.44306"
     inkscape:cy="65.958984"
     inkscape:window-width="1920"
     inkscape:window-height="991"
     inkscape:window-x="-9"
     inkscape:window-y="-9"
     inkscape:window-maximized="1"
     inkscape:current-layer="g225" /><defs
     id="defs122"><clipPath
       id="a"><path
         id="path505"
         d="M13 11a3 3 0 1 0-3 3 3 3 0 0 0 3-3zm-3 5a5 5 0 1 1 5-5 5 5 0 0 1-5 5zM6.42 2.56l-.67.64a2 2 0 0 1-1.38.56H2a1.89 1.89 0 0 0-2 1.75v10.54a1.89 1.89 0 0 0 2 1.76h16a1.89 1.89 0 0 0 2-1.76V5.51a1.89 1.89 0 0 0-2-1.76h-2.37a2 2 0 0 1-1.38-.56l-.67-.64A2 2 0 0 0 12.2 2H7.8a2 2 0 0 0-1.38.56Z"
         clip-rule="evenodd" /></clipPath><style
       id="style120">.cls-2{stroke:#fff;stroke-miterlimit:10;fill:#fff;stroke-width:4px}</style></defs><g
     id="g225"
     transform="translate(1171.8427,-291.24747)"><g
       id="g247"><circle
         id="Circle2"
         cx="-969.68268"
         cy="493.40747"
         r="194.66"
         style="fill:none;stroke:#ffffff;stroke-width:15px;stroke-miterlimit:10" /><g
         fill-rule="evenodd"
         clip-rule="evenodd"
         stroke="none"
         stroke-width="1"
         id="g232"
         transform="matrix(0.10418248,0,0,0.10418248,-1069.6563,393.38615)"
         style="fill:#ffffff"><path
           d="m 1468.235,113 v 99.388 l -112.94,112.941 V 225.941 H 112.94 v 1468.235 h 1242.353 v -438.211 l 112.941,-112.941 v 664.094 H 0 V 113 Z M 421.271,1163.353 c 96,-9.035 154.729,108.423 190.87,197.647 28.235,68.894 38.4,92.612 72.283,96 33.882,3.388 89.223,-58.73 112.94,-101.647 16.53,-26.51 51.42,-34.6 77.93,-18.07 26.51,16.529 34.6,51.42 18.07,77.929 -9.035,16.94 -92.611,160.376 -205.552,160.376 h -9.036 c -70.023,-4.517 -121.976,-48.564 -169.411,-166.023 -47.436,-117.46 -77.93,-127.624 -77.93,-127.624 a 484.518,484.518 0 0 0 -97.13,225.883 c -6.549,31.187 -37.14,51.16 -68.329,44.611 -31.187,-6.55 -51.16,-37.141 -44.611,-68.33 20.33,-94.87 79.059,-310.587 199.906,-320.752 z M 677.647,677.706 V 790.647 H 338.824 V 677.706 Z M 903.53,451.824 v 112.94 H 338.824 v -112.94 h 564.705 z"
           id="path228"
           style="fill:#ffffff" /><path
           d="M 1903.059,468.765 1677.176,242.882 a 56.47,56.47 0 0 0 -80.188,0 L 919.341,920.53 a 56.476,56.476 0 0 0 -15.813,39.53 v 282.353 h 282.354 a 56.47,56.47 0 0 0 39.53,-16.941 l 677.647,-677.647 c 21.523,-21.959 21.523,-57.101 0,-79.06 z m -740.894,660.706 H 1016.47 V 983.776 l 451.764,-451.764 145.694,145.694 -451.764,451.765 z m 531.953,-531.953 -145.694,-145.694 89.223,-89.224 145.694,145.694 z"
           id="path230"
           style="fill:#ffffff" /></g></g></g></svg>
